PathFileType	4	(X/Y/Z)	Gait_latera_markers.trc
DataRate	CameraRate	NumFrames	NumMarkers	Units	OrigDataRate	OrigDataStartFrame	OrigNumFrames
100	100	10	38	m	100	13	86
Frame#	Time	RASI			RPSI			LPSI			LASI			RTROCH			RTHI			RTHI2			RTHI3			RTHI4			RKNE			RKNEM			RTIB			RTIB2			RTIB3			RTIB4			RANK			RANKM			RHEE			RTOE			RTOEL			RTOEM			LTROCH			LTHI			LTHI2			LTHI3			LTHI4			LKNE			LKNEM			LTIB			LTIB2			LTIB3			LTIB4			LANK			LANKM			LHEE			LTOE			LTOEL			LTOEM
		X1	Y1	Z1	X2	Y2	Z2	X3	Y3	Z3	X4	Y4	Z4	X5	Y5	Z5	X6	Y6	Z6	X7	Y7	Z7	X8	Y8	Z8	X9	Y9	Z9	X10	Y10	Z10	X11	Y11	Z11	X12	Y12	Z12	X13	Y13	Z13	X14	Y14	Z14	X15	Y15	Z15	X16	Y16	Z16	X17	Y17	Z17	X18	Y18	Z18	X19	Y19	Z19	X20	Y20	Z20	X21	Y21	Z21	X22	Y22	Z22	X23	Y23	Z23	X24	Y24	Z24	X25	Y25	Z25	X26	Y26	Z26	X27	Y27	Z27	X28	Y28	Z28	X29	Y29	Z29	X30	Y30	Z30	X31	Y31	Z31	X32	Y32	Z32	X33	Y33	Z33	X34	Y34	Z34	X35	Y35	Z35	X36	Y36	Z36	X37	Y37	Z37	X38	Y38	Z38

13	0.120000	-0.331358	0.931454	-0.765885	-0.234683	0.972924	-0.938413	-0.140269	0.955583	-0.917197	-0.108616	0.935459	-0.724212	-0.376969	0.865173	-0.860185	-0.380333	0.762691	-0.907748	-0.384517	0.750296	-0.845621	-0.375627	0.668341	-0.855209	-0.372145	0.675347	-0.916647	-0.341209	0.527485	-0.954503	-0.225809	0.528294	-0.926937	-0.350714	0.421717	-1.045927	-0.332734	0.391048	-0.994373	-0.328263	0.315380	-1.040551	-0.346399	0.351970	-1.090579	-0.288018	0.165422	-1.205237	-0.223547	0.151857	-1.160912	-0.236347	0.130293	-1.270986	-0.311108	0.048731	-1.070018	-0.356383	0.047345	-1.136563	-0.251897	0.032712	-1.079180	-0.041486	0.860654	-0.787907	-0.035439	0.668955	-0.697053	-0.052238	0.691188	-0.640835	-0.067630	0.613568	-0.615574	-0.051800	0.585576	-0.671747	-0.078438	0.518055	-0.622410	-0.178997	0.538302	-0.616575	-0.069680	0.294746	-0.595284	-0.082385	0.319039	-0.536258	-0.094691	0.234466	-0.516002	-0.083081	0.215867	-0.574499	-0.107356	0.091210	-0.528134	-0.175354	0.128491	-0.492886	-0.166018	0.048517	-0.558573	-0.096720	0.110622	-0.348749	-0.053667	0.076408	-0.395987	-0.148990	0.096214	-0.351633
14	0.130000	-0.330487	0.931912	-0.751390	-0.233222	0.972755	-0.923831	-0.138525	0.956069	-0.902421	-0.108056	0.936173	-0.709720	-0.375722	0.864969	-0.845806	-0.378493	0.762404	-0.893016	-0.383317	0.750294	-0.830886	-0.375041	0.668273	-0.839856	-0.370904	0.674874	-0.901179	-0.341413	0.526343	-0.937548	-0.226132	0.526814	-0.909085	-0.351213	0.422034	-1.031187	-0.333220	0.388686	-0.981616	-0.328735	0.316264	-1.028791	-0.346889	0.354153	-1.077537	-0.287844	0.171931	-1.198045	-0.223687	0.156406	-1.153366	-0.235406	0.139803	-1.264266	-0.311911	0.048855	-1.069629	-0.355962	0.049273	-1.135692	-0.251816	0.032955	-1.078383	-0.040641	0.862078	-0.772871	-0.034925	0.667723	-0.686520	-0.049587	0.689428	-0.628719	-0.066206	0.610939	-0.605460	-0.052395	0.583679	-0.662291	-0.077150	0.517295	-0.612169	-0.180735	0.538082	-0.606882	-0.069709	0.295151	-0.584921	-0.082536	0.318028	-0.525598	-0.094909	0.232901	-0.507258	-0.083383	0.215300	-0.566331	-0.107068	0.090781	-0.523198	-0.175262	0.126674	-0.486835	-0.165634	0.050274	-0.556144	-0.096742	0.101961	-0.343174	-0.054252	0.069164	-0.391946	-0.149175	0.087743	-0.346823
15	0.140000	-0.329348	0.932118	-0.736963	-0.232005	0.973017	-0.909385	-0.137038	0.957323	-0.888319	-0.107556	0.937434	-0.695519	-0.374605	0.864889	-0.831465	-0.377024	0.761309	-0.877499	-0.381949	0.750424	-0.815393	-0.374324	0.668275	-0.823542	-0.369744	0.674259	-0.884913	-0.342362	0.525301	-0.919549	-0.228833	0.524289	-0.889538	-0.351578	0.422891	-1.014745	-0.334973	0.388969	-0.965518	-0.329390	0.317155	-1.015738	-0.347052	0.356523	-1.063291	-0.287688	0.178811	-1.189394	-0.223739	0.161387	-1.144600	-0.233893	0.150970	-1.256401	-0.312102	0.048875	-1.068323	-0.355404	0.051779	-1.134226	-0.251798	0.033377	-1.076899	-0.039548	0.864062	-0.757753	-0.033851	0.667394	-0.676087	-0.048344	0.688385	-0.617994	-0.064399	0.609304	-0.595950	-0.050786	0.582651	-0.652840	-0.074856	0.517908	-0.600960	-0.181349	0.539039	-0.597844	-0.068759	0.296239	-0.575914	-0.081754	0.317515	-0.515927	-0.094186	0.231897	-0.499797	-0.082043	0.215874	-0.559149	-0.106587	0.090436	-0.519617	-0.174393	0.125668	-0.482012	-0.165137	0.051379	-0.554148	-0.095303	0.095146	-0.339264	-0.053231	0.064229	-0.389629	-0.147925	0.081575	-0.343480
16	0.150000	-0.328241	0.932777	-0.722665	-0.231336	0.973821	-0.895231	-0.136046	0.959132	-0.874766	-0.107018	0.939371	-0.681975	-0.373340	0.864790	-0.816873	-0.375290	0.761033	-0.861611	-0.380578	0.750592	-0.799322	-0.373665	0.668219	-0.806265	-0.368608	0.673142	-0.867532	-0.343774	0.523983	-0.899869	-0.230111	0.522447	-0.869043	-0.352826	0.423592	-0.997157	-0.336910	0.387721	-0.949539	-0.330403	0.318088	-1.001556	-0.347491	0.359121	-1.047791	-0.287168	0.186650	-1.179518	-0.223985	0.166891	-1.134195	-0.232156	0.162477	-1.246114	-0.312641	0.048751	-1.066961	-0.354487	0.054713	-1.132577	-0.251712	0.033993	-1.075175	-0.036465	0.868291	-0.742602	-0.032311	0.669020	-0.665004	-0.047596	0.689155	-0.607460	-0.061434	0.610259	-0.584884	-0.046734	0.585039	-0.642583	-0.073225	0.520705	-0.587208	-0.179907	0.540924	-0.587880	-0.066839	0.297183	-0.567781	-0.080006	0.317433	-0.507525	-0.092390	0.231560	-0.493443	-0.080389	0.216645	-0.553014	-0.106006	0.090205	-0.516881	-0.173242	0.124985	-0.478134	-0.164156	0.052542	-0.552686	-0.092915	0.089245	-0.336346	-0.051346	0.059295	-0.387884	-0.145848	0.076688	-0.340960
17	0.160000	-0.327242	0.934095	-0.708423	-0.231202	0.975030	-0.881380	-0.135355	0.961540	-0.861436	-0.105935	0.941758	-0.668881	-0.371900	0.864883	-0.802079	-0.373750	0.760136	-0.844973	-0.379065	0.751023	-0.782565	-0.373118	0.668528	-0.788093	-0.368768	0.673012	-0.850129	-0.345719	0.522644	-0.878655	-0.231393	0.520672	-0.847624	-0.354126	0.424603	-0.977997	-0.338888	0.387784	-0.930891	-0.331940	0.318646	-0.986390	-0.348417	0.361787	-1.030946	-0.286296	0.194129	-1.166963	-0.223878	0.172716	-1.121906	-0.229821	0.175247	-1.233806	-0.311485	0.049277	-1.064594	-0.353228	0.058669	-1.130816	-0.251912	0.034674	-1.072542	-0.034160	0.872281	-0.728275	-0.031096	0.672010	-0.652615	-0.045878	0.693030	-0.595018	-0.059396	0.614573	-0.570998	-0.045813	0.587342	-0.627770	-0.072289	0.524127	-0.573476	-0.177115	0.543355	-0.576890	-0.064406	0.298345	-0.560268	-0.078223	0.317586	-0.499827	-0.091119	0.231365	-0.487408	-0.078376	0.217463	-0.547202	-0.105504	0.089719	-0.514665	-0.172103	0.124019	-0.475496	-0.163620	0.053249	-0.551790	-0.090956	0.084469	-0.334306	-0.049861	0.055304	-0.386779	-0.144355	0.072284	-0.339226
18	0.170000	-0.325850	0.935516	-0.694340	-0.231561	0.976740	-0.867814	-0.135739	0.963341	-0.848387	-0.104430	0.944956	-0.656051	-0.370209	0.865003	-0.786949	-0.372401	0.759220	-0.827928	-0.377683	0.751546	-0.765481	-0.372844	0.668865	-0.769322	-0.367995	0.671239	-0.830759	-0.348589	0.521167	-0.856352	-0.231572	0.519560	-0.825045	-0.356101	0.425579	-0.957541	-0.340510	0.386355	-0.912298	-0.333496	0.320722	-0.968559	-0.350393	0.364667	-1.012341	-0.285423	0.203001	-1.153719	-0.223888	0.179196	-1.107971	-0.227114	0.188539	-1.218758	-0.311652	0.050276	-1.062012	-0.351344	0.063633	-1.128167	-0.251456	0.037035	-1.069026	-0.037460	0.873574	-0.717739	-0.029413	0.675450	-0.638092	-0.043793	0.697571	-0.581020	-0.058591	0.619750	-0.556104	-0.045264	0.591696	-0.612724	-0.070844	0.526022	-0.561079	-0.173818	0.545394	-0.563366	-0.061780	0.299425	-0.553157	-0.076400	0.317396	-0.492556	-0.089690	0.230902	-0.482071	-0.075881	0.218324	-0.541758	-0.104586	0.089849	-0.513013	-0.171457	0.123742	-0.473211	-0.163358	0.053871	-0.551148	-0.089855	0.080586	-0.332290	-0.049132	0.052303	-0.385486	-0.143804	0.069291	-0.337973
19	0.180000	-0.324197	0.936944	-0.680424	-0.232181	0.978755	-0.854425	-0.135974	0.965335	-0.835015	-0.102520	0.948195	-0.643387	-0.367049	0.865222	-0.770618	-0.371002	0.758576	-0.810716	-0.376279	0.752078	-0.747796	-0.372788	0.669252	-0.750018	-0.368161	0.670314	-0.811493	-0.351379	0.519927	-0.833236	-0.235044	0.516607	-0.800050	-0.358158	0.426397	-0.935548	-0.343901	0.386771	-0.890594	-0.335190	0.322195	-0.949839	-0.351955	0.367075	-0.992078	-0.284332	0.211933	-1.138341	-0.223908	0.185765	-1.092238	-0.224018	0.203085	-1.202045	-0.311832	0.051707	-1.058105	-0.349339	0.070317	-1.124623	-0.251656	0.039980	-1.064302	-0.036125	0.877102	-0.706437	-0.027070	0.679378	-0.623855	-0.043013	0.701888	-0.567201	-0.058092	0.624156	-0.541986	-0.043367	0.596046	-0.598458	-0.068604	0.527162	-0.550554	-0.171060	0.546098	-0.550285	-0.059118	0.300359	-0.546021	-0.075250	0.317061	-0.485607	-0.088947	0.230556	-0.476868	-0.073601	0.218969	-0.536443	-0.103907	0.089863	-0.511417	-0.170554	0.123657	-0.471370	-0.162942	0.054444	-0.550651	-0.089826	0.076962	-0.330415	-0.048965	0.049708	-0.384188	-0.143866	0.066236	-0.336733
20	0.190000	-0.322181	0.938517	-0.666713	-0.232947	0.980830	-0.841263	-0.137716	0.970270	-0.826463	-0.100232	0.951722	-0.630936	-0.365547	0.865734	-0.755612	-0.370052	0.757465	-0.793032	-0.375094	0.752740	-0.729979	-0.372925	0.669874	-0.730178	-0.368752	0.669368	-0.791798	-0.353994	0.518679	-0.809667	-0.238921	0.513898	-0.774531	-0.360322	0.427046	-0.912211	-0.345749	0.385918	-0.868995	-0.335815	0.323239	-0.930386	-0.352877	0.370336	-0.970771	-0.283399	0.220999	-1.121184	-0.224111	0.192305	-1.074618	-0.221013	0.218103	-1.183119	-0.312416	0.054338	-1.053004	-0.347486	0.078454	-1.119231	-0.251222	0.044807	-1.058668	-0.034694	0.880140	-0.696068	-0.024708	0.682829	-0.610736	-0.043050	0.704934	-0.554789	-0.057145	0.626985	-0.530157	-0.039570	0.599748	-0.586172	-0.065935	0.527690	-0.541688	-0.168231	0.546738	-0.538043	-0.056940	0.301158	-0.539274	-0.074215	0.316832	-0.478963	-0.088282	0.230195	-0.471841	-0.071584	0.219537	-0.531149	-0.103672	0.089514	-0.509848	-0.169685	0.123383	-0.469269	-0.162529	0.054987	-0.550092	-0.089577	0.073547	-0.328684	-0.048861	0.047027	-0.382896	-0.143878	0.063413	-0.335457
21	0.200000	-0.320079	0.940591	-0.653046	-0.233480	0.982985	-0.828363	-0.138056	0.972952	-0.814070	-0.097811	0.954961	-0.618533	-0.364790	0.866258	-0.741149	-0.369574	0.756572	-0.775400	-0.374157	0.753470	-0.712094	-0.373233	0.670606	-0.710079	-0.369480	0.668501	-0.771800	-0.356081	0.517737	-0.786118	-0.241873	0.511896	-0.748165	-0.361780	0.428880	-0.888093	-0.348273	0.385863	-0.845713	-0.338159	0.325099	-0.908987	-0.353544	0.373605	-0.948765	-0.282612	0.229852	-1.101964	-0.225336	0.198149	-1.055469	-0.218568	0.232528	-1.161378	-0.313237	0.057791	-1.046502	-0.346102	0.088254	-1.111473	-0.251652	0.049697	-1.051745	-0.033498	0.882864	-0.685939	-0.023032	0.685785	-0.599769	-0.042092	0.706350	-0.543563	-0.054956	0.627847	-0.520695	-0.036722	0.601987	-0.577103	-0.063794	0.527903	-0.534091	-0.166469	0.547367	-0.528620	-0.055454	0.301432	-0.532799	-0.073905	0.316321	-0.472755	-0.087906	0.229634	-0.467238	-0.070423	0.219930	-0.526358	-0.103165	0.089608	-0.508164	-0.169336	0.122881	-0.468056	-0.162225	0.055317	-0.549684	-0.089771	0.070867	-0.327012	-0.048843	0.046002	-0.381723	-0.143840	0.060576	-0.334315
22	0.210000	-0.317954	0.942704	-0.639697	-0.233590	0.985016	-0.815682	-0.138166	0.975028	-0.801808	-0.095320	0.957678	-0.606508	-0.363075	0.867150	-0.725832	-0.369281	0.755591	-0.757737	-0.373557	0.754390	-0.694088	-0.373530	0.671606	-0.689998	-0.370417	0.668599	-0.752176	-0.358239	0.516971	-0.762391	-0.244366	0.510118	-0.721496	-0.363727	0.429854	-0.863804	-0.350301	0.385676	-0.822226	-0.339030	0.326959	-0.887093	-0.354714	0.376132	-0.925695	-0.281998	0.238399	-1.081089	-0.225090	0.204486	-1.035290	-0.216262	0.246667	-1.137434	-0.314118	0.062321	-1.037561	-0.345179	0.099435	-1.101035	-0.253633	0.054463	-1.042971	-0.032255	0.885224	-0.675526	-0.022448	0.688134	-0.591428	-0.039936	0.706283	-0.533118	-0.052269	0.626889	-0.512764	-0.035485	0.603426	-0.570986	-0.062059	0.527747	-0.526785	-0.166062	0.547528	-0.522331	-0.054755	0.301571	-0.527588	-0.073876	0.315672	-0.467440	-0.088134	0.228822	-0.463287	-0.069920	0.219932	-0.522359	-0.103082	0.089772	-0.506727	-0.169621	0.122372	-0.466701	-0.162211	0.055586	-0.549406	-0.090339	0.068761	-0.325625	-0.049267	0.045484	-0.380824	-0.144552	0.058453	-0.333511
